<mxfile host="app.diagrams.net" modified="2021-07-22T10:46:08.647Z" agent="5.0 (Macintosh; Intel Mac OS X 10_15_7) AppleWebKit/537.36 (KHTML, like Gecko) Chrome/91.0.4472.164 Safari/537.36" etag="DvlRduiKOSD6TTuSJObU" version="14.4.2" type="github">
  <diagram id="jGbxMY5IhiKX8wRGJWSk" name="Page-1">
    <mxGraphModel dx="2066" dy="1161" grid="1" gridSize="10" guides="1" tooltips="1" connect="1" arrows="1" fold="1" page="1" pageScale="1" pageWidth="827" pageHeight="1169" math="0" shadow="0">
      <root>
        <mxCell id="0" />
        <mxCell id="1" parent="0" />
        <mxCell id="sBcvcom1AQNV1496R9Lu-2" value="&lt;font style=&quot;font-size: 18px&quot;&gt;32bit&lt;/font&gt;" style="rounded=0;whiteSpace=wrap;html=1;fillColor=#dae8fc;strokeColor=#6c8ebf;strokeWidth=2;" vertex="1" parent="1">
          <mxGeometry x="200" y="160" width="560" height="40" as="geometry" />
        </mxCell>
        <mxCell id="sBcvcom1AQNV1496R9Lu-3" value="&lt;b style=&quot;font-size: 22px&quot;&gt;锁状态&lt;/b&gt;" style="rounded=0;whiteSpace=wrap;html=1;fillColor=#f5f5f5;strokeColor=#666666;fontColor=#333333;strokeWidth=2;" vertex="1" parent="1">
          <mxGeometry x="80" y="160" width="120" height="120" as="geometry" />
        </mxCell>
        <mxCell id="sBcvcom1AQNV1496R9Lu-7" value="&lt;font style=&quot;font-size: 18px&quot;&gt;25bit&lt;/font&gt;" style="rounded=0;whiteSpace=wrap;html=1;fillColor=#d5e8d4;strokeColor=#82b366;strokeWidth=2;" vertex="1" parent="1">
          <mxGeometry x="200" y="200" width="200" height="40" as="geometry" />
        </mxCell>
        <mxCell id="sBcvcom1AQNV1496R9Lu-9" value="&lt;font style=&quot;font-size: 18px&quot;&gt;4bit&lt;br&gt;&lt;/font&gt;" style="rounded=0;whiteSpace=wrap;html=1;fillColor=#d5e8d4;strokeColor=#82b366;strokeWidth=2;" vertex="1" parent="1">
          <mxGeometry x="400" y="200" width="120" height="80" as="geometry" />
        </mxCell>
        <mxCell id="sBcvcom1AQNV1496R9Lu-10" value="&lt;font style=&quot;font-size: 18px&quot;&gt;1bit&lt;br&gt;&lt;/font&gt;" style="rounded=0;whiteSpace=wrap;html=1;fillColor=#d5e8d4;strokeColor=#82b366;strokeWidth=2;" vertex="1" parent="1">
          <mxGeometry x="520" y="200" width="120" height="40" as="geometry" />
        </mxCell>
        <mxCell id="sBcvcom1AQNV1496R9Lu-11" value="&lt;font style=&quot;font-size: 18px&quot;&gt;2bit&lt;br&gt;&lt;/font&gt;" style="rounded=0;whiteSpace=wrap;html=1;fillColor=#d5e8d4;strokeColor=#82b366;strokeWidth=2;" vertex="1" parent="1">
          <mxGeometry x="640" y="200" width="120" height="40" as="geometry" />
        </mxCell>
        <mxCell id="sBcvcom1AQNV1496R9Lu-15" value="&lt;font style=&quot;font-size: 18px&quot;&gt;23bit&lt;/font&gt;" style="rounded=0;whiteSpace=wrap;html=1;fillColor=#d5e8d4;strokeColor=#82b366;strokeWidth=2;" vertex="1" parent="1">
          <mxGeometry x="200" y="240" width="130" height="40" as="geometry" />
        </mxCell>
        <mxCell id="sBcvcom1AQNV1496R9Lu-16" value="&lt;font style=&quot;font-size: 18px&quot;&gt;2bit&lt;/font&gt;" style="rounded=0;whiteSpace=wrap;html=1;fillColor=#d5e8d4;strokeColor=#82b366;strokeWidth=2;" vertex="1" parent="1">
          <mxGeometry x="330" y="240" width="70" height="40" as="geometry" />
        </mxCell>
        <mxCell id="sBcvcom1AQNV1496R9Lu-17" value="&lt;font style=&quot;font-size: 18px&quot;&gt;偏向模式&lt;br&gt;&lt;/font&gt;" style="rounded=0;whiteSpace=wrap;html=1;strokeWidth=2;fillColor=#f5f5f5;strokeColor=#666666;fontColor=#333333;" vertex="1" parent="1">
          <mxGeometry x="520" y="240" width="120" height="40" as="geometry" />
        </mxCell>
        <mxCell id="sBcvcom1AQNV1496R9Lu-18" value="&lt;font style=&quot;font-size: 18px&quot;&gt;标志位&lt;br&gt;&lt;/font&gt;" style="rounded=0;whiteSpace=wrap;html=1;strokeWidth=2;fillColor=#f5f5f5;strokeColor=#666666;fontColor=#333333;" vertex="1" parent="1">
          <mxGeometry x="640" y="240" width="120" height="40" as="geometry" />
        </mxCell>
        <mxCell id="sBcvcom1AQNV1496R9Lu-22" value="&lt;font style=&quot;font-size: 18px&quot;&gt;未锁定/无锁&lt;/font&gt;" style="rounded=0;whiteSpace=wrap;html=1;fillColor=#bac8d3;strokeColor=#23445d;strokeWidth=2;" vertex="1" parent="1">
          <mxGeometry x="80" y="280" width="120" height="80" as="geometry" />
        </mxCell>
        <mxCell id="sBcvcom1AQNV1496R9Lu-23" value="&lt;font style=&quot;font-size: 18px&quot;&gt;轻量级锁&lt;/font&gt;" style="rounded=0;whiteSpace=wrap;html=1;fillColor=#bac8d3;strokeColor=#23445d;strokeWidth=2;" vertex="1" parent="1">
          <mxGeometry x="80" y="360" width="120" height="40" as="geometry" />
        </mxCell>
        <mxCell id="sBcvcom1AQNV1496R9Lu-24" value="&lt;font style=&quot;font-size: 18px&quot;&gt;重量级锁&lt;br&gt;锁膨胀&lt;/font&gt;" style="rounded=0;whiteSpace=wrap;html=1;fillColor=#bac8d3;strokeColor=#23445d;strokeWidth=2;" vertex="1" parent="1">
          <mxGeometry x="80" y="400" width="120" height="80" as="geometry" />
        </mxCell>
        <mxCell id="sBcvcom1AQNV1496R9Lu-25" value="&lt;font style=&quot;font-size: 18px&quot;&gt;GC标记&lt;/font&gt;" style="rounded=0;whiteSpace=wrap;html=1;fillColor=#bac8d3;strokeColor=#23445d;strokeWidth=2;" vertex="1" parent="1">
          <mxGeometry x="80" y="480" width="120" height="40" as="geometry" />
        </mxCell>
        <mxCell id="sBcvcom1AQNV1496R9Lu-26" value="&lt;font style=&quot;font-size: 18px&quot;&gt;偏向锁&lt;/font&gt;" style="rounded=0;whiteSpace=wrap;html=1;fillColor=#bac8d3;strokeColor=#23445d;strokeWidth=2;" vertex="1" parent="1">
          <mxGeometry x="80" y="520" width="120" height="40" as="geometry" />
        </mxCell>
        <mxCell id="sBcvcom1AQNV1496R9Lu-27" value="&lt;span style=&quot;font-size: 18px&quot;&gt;对象的 HashCode&lt;/span&gt;" style="rounded=0;whiteSpace=wrap;html=1;strokeWidth=2;" vertex="1" parent="1">
          <mxGeometry x="200" y="280" width="200" height="80" as="geometry" />
        </mxCell>
        <mxCell id="sBcvcom1AQNV1496R9Lu-28" value="&lt;font style=&quot;font-size: 18px&quot;&gt;分代年龄&lt;br&gt;&lt;/font&gt;" style="rounded=0;whiteSpace=wrap;html=1;strokeWidth=2;" vertex="1" parent="1">
          <mxGeometry x="400" y="280" width="120" height="80" as="geometry" />
        </mxCell>
        <mxCell id="sBcvcom1AQNV1496R9Lu-29" value="&lt;font style=&quot;font-size: 18px&quot;&gt;0 - 未偏向&lt;br&gt;&lt;/font&gt;" style="rounded=0;whiteSpace=wrap;html=1;strokeWidth=2;" vertex="1" parent="1">
          <mxGeometry x="520" y="280" width="120" height="80" as="geometry" />
        </mxCell>
        <mxCell id="sBcvcom1AQNV1496R9Lu-30" value="&lt;font style=&quot;font-size: 18px&quot;&gt;01&lt;br&gt;&lt;/font&gt;" style="rounded=0;whiteSpace=wrap;html=1;strokeWidth=2;" vertex="1" parent="1">
          <mxGeometry x="640" y="280" width="120" height="80" as="geometry" />
        </mxCell>
        <mxCell id="sBcvcom1AQNV1496R9Lu-31" value="&lt;span style=&quot;font-size: 18px&quot;&gt;指向调用栈中锁记录(Lock Record)的指针&lt;/span&gt;" style="rounded=0;whiteSpace=wrap;html=1;strokeWidth=2;" vertex="1" parent="1">
          <mxGeometry x="200" y="360" width="440" height="40" as="geometry" />
        </mxCell>
        <mxCell id="sBcvcom1AQNV1496R9Lu-32" value="&lt;font style=&quot;font-size: 18px&quot;&gt;00&lt;br&gt;&lt;/font&gt;" style="rounded=0;whiteSpace=wrap;html=1;strokeWidth=2;" vertex="1" parent="1">
          <mxGeometry x="640" y="360" width="120" height="40" as="geometry" />
        </mxCell>
        <mxCell id="sBcvcom1AQNV1496R9Lu-33" value="&lt;span style=&quot;font-size: 18px&quot;&gt;指向重量级锁的指针&lt;/span&gt;" style="rounded=0;whiteSpace=wrap;html=1;strokeWidth=2;" vertex="1" parent="1">
          <mxGeometry x="200" y="400" width="440" height="80" as="geometry" />
        </mxCell>
        <mxCell id="sBcvcom1AQNV1496R9Lu-34" value="&lt;font style=&quot;font-size: 18px&quot;&gt;10&lt;br&gt;&lt;/font&gt;" style="rounded=0;whiteSpace=wrap;html=1;strokeWidth=2;" vertex="1" parent="1">
          <mxGeometry x="640" y="400" width="120" height="80" as="geometry" />
        </mxCell>
        <mxCell id="sBcvcom1AQNV1496R9Lu-35" value="&lt;span style=&quot;font-size: 18px&quot;&gt;null&lt;/span&gt;" style="rounded=0;whiteSpace=wrap;html=1;strokeWidth=2;" vertex="1" parent="1">
          <mxGeometry x="200" y="480" width="440" height="40" as="geometry" />
        </mxCell>
        <mxCell id="sBcvcom1AQNV1496R9Lu-37" value="&lt;font style=&quot;font-size: 18px&quot;&gt;11&lt;br&gt;&lt;/font&gt;" style="rounded=0;whiteSpace=wrap;html=1;strokeWidth=2;" vertex="1" parent="1">
          <mxGeometry x="640" y="480" width="120" height="40" as="geometry" />
        </mxCell>
        <mxCell id="sBcvcom1AQNV1496R9Lu-38" value="&lt;span style=&quot;font-size: 18px&quot;&gt;线程ID&lt;/span&gt;" style="rounded=0;whiteSpace=wrap;html=1;strokeWidth=2;" vertex="1" parent="1">
          <mxGeometry x="200" y="520" width="130" height="40" as="geometry" />
        </mxCell>
        <mxCell id="sBcvcom1AQNV1496R9Lu-39" value="&lt;font style=&quot;font-size: 18px&quot;&gt;Epoch&lt;/font&gt;" style="rounded=0;whiteSpace=wrap;html=1;strokeWidth=2;" vertex="1" parent="1">
          <mxGeometry x="330" y="520" width="70" height="40" as="geometry" />
        </mxCell>
        <mxCell id="sBcvcom1AQNV1496R9Lu-41" value="&lt;font style=&quot;font-size: 18px&quot;&gt;分代年龄&lt;br&gt;&lt;/font&gt;" style="rounded=0;whiteSpace=wrap;html=1;strokeWidth=2;" vertex="1" parent="1">
          <mxGeometry x="400" y="520" width="120" height="40" as="geometry" />
        </mxCell>
        <mxCell id="sBcvcom1AQNV1496R9Lu-42" value="&lt;font style=&quot;font-size: 18px&quot;&gt;1-偏向模式&lt;br&gt;&lt;/font&gt;" style="rounded=0;whiteSpace=wrap;html=1;strokeWidth=2;" vertex="1" parent="1">
          <mxGeometry x="520" y="520" width="120" height="40" as="geometry" />
        </mxCell>
        <mxCell id="sBcvcom1AQNV1496R9Lu-44" value="&lt;font style=&quot;font-size: 18px&quot;&gt;01&lt;br&gt;&lt;/font&gt;" style="rounded=0;whiteSpace=wrap;html=1;strokeWidth=2;" vertex="1" parent="1">
          <mxGeometry x="640" y="520" width="120" height="40" as="geometry" />
        </mxCell>
        <mxCell id="sBcvcom1AQNV1496R9Lu-45" value="&lt;font style=&quot;font-size: 26px&quot; color=&quot;#3399ff&quot;&gt;Mark Word&lt;/font&gt;" style="rounded=1;whiteSpace=wrap;html=1;strokeWidth=2;dashed=1;strokeColor=#66B2FF;" vertex="1" parent="1">
          <mxGeometry x="320" y="70" width="200" height="60" as="geometry" />
        </mxCell>
      </root>
    </mxGraphModel>
  </diagram>
</mxfile>
